<svg width="30" height="31" viewBox="0 0 30 31" fill="none" xmlns="http://www.w3.org/2000/svg">
<g clip-path="url(#clip0_1613_1189)">
<path d="M0 14.9C0 8.11175 0 4.71766 2.10883 2.60883C4.21766 0.5 7.61175 0.5 14.4 0.5H15.6C22.3883 0.5 25.7823 0.5 27.8912 2.60883C30 4.71766 30 8.11175 30 14.9V16.1C30 22.8883 30 26.2823 27.8912 28.3912C25.7823 30.5 22.3883 30.5 15.6 30.5H14.4C7.61175 30.5 4.21766 30.5 2.10883 28.3912C0 26.2823 0 22.8883 0 16.1V14.9Z" fill="black"/>
<path d="M15.911 22.1C8.94115 22.1 4.9657 17.3703 4.80005 9.5H8.29137C8.40605 15.2766 10.9799 17.7234 13.0186 18.2279V9.5H16.3062V14.482C18.3194 14.2676 20.4343 11.9973 21.1479 9.5H24.4354C23.8875 12.5775 21.5939 14.8477 19.9629 15.7811C21.5939 16.5378 24.2062 18.518 25.2 22.1H21.5812C20.8039 19.7036 18.8673 17.8495 16.3062 17.5973V22.1H15.911Z" fill="white"/>
</g>
<defs>
<clipPath id="clip0_1613_1189">
<rect width="30" height="30" fill="white" transform="translate(0 0.5)"/>
</clipPath>
</defs>
</svg>
