<svg width="212" height="73" viewBox="0 0 212 73" fill="none" xmlns="http://www.w3.org/2000/svg">
<path d="M0.705395 70.904H-2.29461V73.904H0.705395V70.904ZM0.705395 60.824L-1.29063 58.5844L-2.29461 59.4792V60.824H0.705395ZM30.2734 34.472L28.2803 32.2298L28.2774 32.2324L30.2734 34.472ZM35.0734 28.664L37.7661 29.9867L35.0734 28.664ZM34.9294 17.24L32.2939 18.6733L32.2993 18.6832L32.3047 18.6929L34.9294 17.24ZM30.8014 12.92L29.237 15.4798L29.2475 15.4862L29.2579 15.4925L30.8014 12.92ZM18.4174 13.016L19.9542 15.5925L19.9608 15.5885L19.9674 15.5846L18.4174 13.016ZM14.1454 17.384L11.5294 15.9154L14.1454 17.384ZM12.7054 23.288V26.288H15.7977L15.704 23.1971L12.7054 23.288ZM0.801395 23.288H-2.1986V26.288H0.801395V23.288ZM3.8734 11.24L1.30941 9.68244L1.30407 9.69123L1.2988 9.70005L3.8734 11.24ZM12.4174 3.272L11.0385 0.607658L11.0289 0.612663L12.4174 3.272ZM36.9454 3.41599L35.4724 6.02945L35.4814 6.03455L35.4905 6.03959L36.9454 3.41599ZM45.2494 11.576L42.652 13.0772L42.6581 13.0876L45.2494 11.576ZM42.8974 38.024L40.7215 35.9587L40.7122 35.9685L40.703 35.9784L42.8974 38.024ZM36.3214 44.312L34.342 42.0577L34.3325 42.0661L36.3214 44.312ZM15.3454 62.888L12.5288 63.9208L14.0425 68.0491L17.3343 65.1339L15.3454 62.888ZM14.2894 60.008V57.008H9.99409L11.4728 61.0408L14.2894 60.008ZM48.2734 60.008H51.2734V57.008H48.2734V60.008ZM48.2734 70.904V73.904H51.2734V70.904H48.2734ZM3.70539 70.904V60.824H-2.29461V70.904H3.70539ZM2.70142 63.0636L32.2694 36.7116L28.2774 32.2324L-1.29063 58.5844L2.70142 63.0636ZM32.2665 36.7142C34.7258 34.5282 36.6337 32.2919 37.7661 29.9867L32.3807 27.3413C31.7211 28.6841 30.429 30.3198 28.2803 32.2298L32.2665 36.7142ZM37.7661 29.9867C38.8246 27.8318 39.4174 25.6207 39.4174 23.384H33.4174C33.4174 24.5393 33.1142 25.8482 32.3807 27.3413L37.7661 29.9867ZM39.4174 23.384C39.4174 20.6363 38.8217 18.077 37.5541 15.787L32.3047 18.6929C33.0211 19.987 33.4174 21.5237 33.4174 23.384H39.4174ZM37.5648 15.8067C36.3202 13.5181 34.5696 11.6823 32.3449 10.3475L29.2579 15.4925C30.5532 16.2697 31.5546 17.3139 32.2939 18.6733L37.5648 15.8067ZM32.3657 10.3602C30.1111 8.98229 27.5563 8.336 24.8014 8.336V14.336C26.5905 14.336 28.0357 14.7457 29.237 15.4798L32.3657 10.3602ZM24.8014 8.336C21.9153 8.336 19.2402 9.01559 16.8674 10.4474L19.9674 15.5846C21.3066 14.7764 22.8875 14.336 24.8014 14.336V8.336ZM16.8806 10.4395C14.6135 11.7918 12.8142 13.6268 11.5294 15.9154L16.7613 18.8526C17.5246 17.4931 18.5733 16.4161 19.9542 15.5925L16.8806 10.4395ZM11.5294 15.9154C10.2357 18.2198 9.62644 20.7278 9.70677 23.3789L15.704 23.1971C15.6564 21.6242 16.0071 20.1962 16.7613 18.8526L11.5294 15.9154ZM12.7054 20.288H0.801395V26.288H12.7054V20.288ZM3.8014 23.288C3.8014 19.1369 4.71917 15.6703 6.448 12.7799L1.2988 9.70005C-1.06838 13.6577 -2.1986 18.223 -2.1986 23.288H3.8014ZM6.43738 12.7976C8.22795 9.85001 10.6656 7.57098 13.8059 5.93134L11.0289 0.612663C6.93723 2.74901 3.67885 5.78198 1.30941 9.68244L6.43738 12.7976ZM13.7963 5.93633C16.9544 4.30188 20.6759 3.44 25.0414 3.44V-2.56C19.8709 -2.56 15.1764 -1.53388 11.0385 0.607674L13.7963 5.93633ZM25.0414 3.44C28.9905 3.44 32.443 4.32199 35.4724 6.02945L38.4184 0.802536C34.4078 -1.45799 29.9243 -2.56 25.0414 -2.56V3.44ZM35.4905 6.03959C38.5345 7.72765 40.9078 10.0595 42.652 13.0772L47.8468 10.0748C45.559 6.11649 42.3963 3.00834 38.4003 0.792397L35.4905 6.03959ZM42.6581 13.0876C44.3736 16.0285 45.2734 19.4779 45.2734 23.528H51.2734C51.2734 18.5541 50.1572 14.0355 47.8407 10.0644L42.6581 13.0876ZM45.2734 23.528C45.2734 26.5731 44.8566 28.9361 44.144 30.7178L49.7148 32.9462C50.7942 30.2479 51.2734 27.0749 51.2734 23.528H45.2734ZM44.144 30.7178C43.3999 32.578 42.2727 34.3244 40.7215 35.9587L45.0733 40.0893C47.1061 37.9476 48.6669 35.5659 49.7148 32.9462L44.144 30.7178ZM40.703 35.9784C39.0301 37.7729 36.9152 39.7983 34.342 42.0577L38.3008 46.5663C40.9756 44.2177 43.2447 42.051 45.0918 40.0696L40.703 35.9784ZM34.3325 42.0661L13.3565 60.6421L17.3343 65.1339L38.3103 46.5579L34.3325 42.0661ZM18.162 61.8552L17.106 58.9752L11.4728 61.0408L12.5288 63.9208L18.162 61.8552ZM14.2894 63.008H48.2734V57.008H14.2894V63.008ZM45.2734 60.008V70.904H51.2734V60.008H45.2734ZM48.2734 67.904H0.705395V73.904H48.2734V67.904ZM71.7169 69.32L70.2429 71.9329L70.2514 71.9377L70.26 71.9425L71.7169 69.32ZM62.9329 60.536L60.3104 61.9929L60.3152 62.0015L60.32 62.01L62.9329 60.536ZM62.9329 12.344L60.32 10.87L60.3152 10.8785L60.3104 10.8871L62.9329 12.344ZM71.7169 3.608L73.1738 6.23047L73.1824 6.22573L73.1909 6.22093L71.7169 3.608ZM97.5889 3.608L96.1053 6.21549L96.1186 6.22305L96.132 6.23047L97.5889 3.608ZM106.373 12.344L103.76 13.818H103.76L106.373 12.344ZM106.373 60.536L103.76 59.062L106.373 60.536ZM97.5889 69.32L99.0554 71.9371L99.0629 71.9329L97.5889 69.32ZM91.3009 59.72L92.8073 62.3144L92.8228 62.3053L92.8383 62.2961L91.3009 59.72ZM96.0049 55.016L98.5885 56.5408L98.5939 56.5316L98.5993 56.5224L96.0049 55.016ZM96.0049 17.816L93.4105 19.3224L93.4159 19.3316L93.4213 19.3408L96.0049 17.816ZM91.3009 13.112L89.7635 15.6881L89.779 15.6973L89.7945 15.7064L91.3009 13.112ZM78.0529 13.112L79.5593 15.7064L79.5748 15.6973L79.5903 15.6881L78.0529 13.112ZM73.3489 17.816L75.9325 19.3408L75.9379 19.3316L75.9433 19.3224L73.3489 17.816ZM73.3489 55.016L70.7545 56.5224L70.7599 56.5316L70.7653 56.5408L73.3489 55.016ZM78.0529 59.72L76.5155 62.2961L76.531 62.3053L76.5465 62.3144L78.0529 59.72ZM84.6769 69.44C80.2168 69.44 76.4117 68.4964 73.1738 66.6975L70.26 71.9425C74.5101 74.3036 79.3449 75.44 84.6769 75.44V69.44ZM73.1909 66.7071C69.9232 64.8638 67.3891 62.3297 65.5458 59.062L60.32 62.01C62.7007 66.2303 66.0225 69.5522 70.2429 71.9329L73.1909 66.7071ZM65.5554 59.0791C63.7565 55.8412 62.8129 52.036 62.8129 47.576H56.8129C56.8129 52.9079 57.9493 57.7428 60.3104 61.9929L65.5554 59.0791ZM62.8129 47.576V25.304H56.8129V47.576H62.8129ZM62.8129 25.304C62.8129 20.8439 63.7565 17.0388 65.5554 13.8009L60.3104 10.8871C57.9493 15.1372 56.8129 19.9721 56.8129 25.304H62.8129ZM65.5458 13.818C67.3869 10.5543 69.9156 8.04058 73.1738 6.23047L70.26 0.985527C66.0302 3.33541 62.7029 6.64573 60.32 10.87L65.5458 13.818ZM73.1909 6.22093C76.4256 4.39621 80.2245 3.44 84.6769 3.44V-2.56C79.3373 -2.56 74.4962 -1.40422 70.2429 0.995064L73.1909 6.22093ZM84.6769 3.44C89.1299 3.44 92.9081 4.3964 96.1053 6.21549L99.0725 1.00051C94.8457 -1.4044 90.0159 -2.56 84.6769 -2.56V3.44ZM96.132 6.23047C99.3902 8.04058 101.919 10.5543 103.76 13.818L108.986 10.87C106.603 6.64573 103.276 3.33541 99.0458 0.985527L96.132 6.23047ZM103.76 13.818C105.585 17.0527 106.541 20.8516 106.541 25.304H112.541C112.541 19.9644 111.385 15.1233 108.986 10.87L103.76 13.818ZM106.541 25.304V47.576H112.541V25.304H106.541ZM106.541 47.576C106.541 52.0284 105.585 55.8273 103.76 59.062L108.986 62.01C111.385 57.7567 112.541 52.9156 112.541 47.576H106.541ZM103.76 59.062C101.917 62.3297 99.3825 64.8638 96.1149 66.7071L99.0629 71.9329C103.283 69.5522 106.605 66.2303 108.986 62.01L103.76 59.062ZM96.1224 66.7029C92.922 68.4962 89.1376 69.44 84.6769 69.44V75.44C90.0082 75.44 94.8318 74.3038 99.0554 71.9371L96.1224 66.7029ZM84.6769 64.448C87.605 64.448 90.338 63.7481 92.8073 62.3144L89.7945 57.1256C88.2958 57.9958 86.6128 58.448 84.6769 58.448V64.448ZM92.8383 62.2961C95.2448 60.86 97.1762 58.9339 98.5885 56.5408L93.4213 53.4912C92.5296 55.0021 91.325 56.212 89.7635 57.1439L92.8383 62.2961ZM98.5993 56.5224C100.033 54.0531 100.733 51.3201 100.733 48.392H94.7329C94.7329 50.3279 94.2807 52.0109 93.4105 53.5096L98.5993 56.5224ZM100.733 48.392V24.44H94.7329V48.392H100.733ZM100.733 24.44C100.733 21.4879 100.037 18.745 98.5885 16.2912L93.4213 19.3408C94.2772 20.791 94.7329 22.4641 94.7329 24.44H100.733ZM98.5993 16.3096C97.1854 13.8745 95.2424 11.9315 92.8073 10.5176L89.7945 15.7064C91.3274 16.5965 92.5204 17.7895 93.4105 19.3224L98.5993 16.3096ZM92.8383 10.5359C90.3646 9.05962 87.6205 8.336 84.6769 8.336V14.336C86.5973 14.336 88.2692 14.7964 89.7635 15.6881L92.8383 10.5359ZM84.6769 8.336C81.7333 8.336 78.9892 9.05962 76.5155 10.5359L79.5903 15.6881C81.0846 14.7964 82.7565 14.336 84.6769 14.336V8.336ZM76.5465 10.5176C74.1114 11.9315 72.1684 13.8745 70.7545 16.3096L75.9433 19.3224C76.8334 17.7895 78.0264 16.5965 79.5593 15.7064L76.5465 10.5176ZM70.7653 16.2912C69.3172 18.745 68.6209 21.4879 68.6209 24.44H74.6209C74.6209 22.4641 75.0766 20.791 75.9325 19.3408L70.7653 16.2912ZM68.6209 24.44V48.392H74.6209V24.44H68.6209ZM68.6209 48.392C68.6209 51.3201 69.3207 54.0531 70.7545 56.5224L75.9433 53.5096C75.073 52.0109 74.6209 50.3279 74.6209 48.392H68.6209ZM70.7653 56.5408C72.1776 58.9339 74.109 60.86 76.5155 62.2961L79.5903 57.1439C78.0288 56.212 76.8242 55.0021 75.9325 53.4912L70.7653 56.5408ZM76.5465 62.3144C79.0158 63.7481 81.7488 64.448 84.6769 64.448V58.448C82.741 58.448 81.058 57.9958 79.5593 57.1256L76.5465 62.3144ZM135 71H132V74H135V71ZM135 14.504H138V9.15483L133.436 11.9442L135 14.504ZM122.04 22.424H119.04V27.7732L123.605 24.9838L122.04 22.424ZM122.04 9.65599L120.497 7.08352L119.04 7.95742V9.65599H122.04ZM135 1.88V-1.12H134.169L133.457 -0.692482L135 1.88ZM146.808 1.88H149.808V-1.12H146.808V1.88ZM146.808 71V74H149.808V71H146.808ZM138 71V14.504H132V71H138ZM133.436 11.9442L120.476 19.8642L123.605 24.9838L136.565 17.0638L133.436 11.9442ZM125.04 22.424V9.65599H119.04V22.424H125.04ZM123.584 12.2285L136.544 4.45248L133.457 -0.692482L120.497 7.08352L123.584 12.2285ZM135 4.88H146.808V-1.12H135V4.88ZM143.808 1.88V71H149.808V1.88H143.808ZM146.808 68H135V74H146.808V68ZM193.798 71H190.798V74H193.798V71ZM193.798 59.576H196.798V56.576H193.798V59.576ZM163.174 59.576H160.174V62.576H163.174V59.576ZM163.174 48.776L160.461 47.4958L160.174 48.1038V48.776H163.174ZM185.302 1.88V-1.12H183.401L182.589 0.5998L185.302 1.88ZM198.502 1.88L201.215 3.16019L203.235 -1.12H198.502V1.88ZM176.374 48.776L173.661 47.4958L171.641 51.776H176.374V48.776ZM193.798 48.776V51.776H196.798V48.776H193.798ZM193.798 30.776V27.776H190.798V30.776H193.798ZM205.51 30.776H208.51V27.776H205.51V30.776ZM205.51 48.776H202.51V51.776H205.51V48.776ZM211.99 48.776H214.99V45.776H211.99V48.776ZM211.99 59.576V62.576H214.99V59.576H211.99ZM205.51 59.576V56.576H202.51V59.576H205.51ZM205.51 71V74H208.51V71H205.51ZM196.798 71V59.576H190.798V71H196.798ZM193.798 56.576H163.174V62.576H193.798V56.576ZM166.174 59.576V48.776H160.174V59.576H166.174ZM165.887 50.0562L188.015 3.16019L182.589 0.5998L160.461 47.4958L165.887 50.0562ZM185.302 4.88H198.502V-1.12H185.302V4.88ZM195.789 0.5998L173.661 47.4958L179.087 50.0562L201.215 3.16019L195.789 0.5998ZM176.374 51.776H193.798V45.776H176.374V51.776ZM196.798 48.776V30.776H190.798V48.776H196.798ZM193.798 33.776H205.51V27.776H193.798V33.776ZM202.51 30.776V48.776H208.51V30.776H202.51ZM205.51 51.776H211.99V45.776H205.51V51.776ZM208.99 48.776V59.576H214.99V48.776H208.99ZM211.99 56.576H205.51V62.576H211.99V56.576ZM202.51 59.576V71H208.51V59.576H202.51ZM205.51 68H193.798V74H205.51V68Z" fill="#464646"/>
</svg>
