<svg width="30" height="31" viewBox="0 0 30 31" fill="none" xmlns="http://www.w3.org/2000/svg">
<g clip-path="url(#clip0_1613_1190)">
<path d="M30 15.5C30 23.7843 23.2843 30.5 15 30.5C6.71573 30.5 0 23.7843 0 15.5C0 7.21573 6.71573 0.5 15 0.5C23.2843 0.5 30 7.21573 30 15.5Z" fill="url(#paint0_linear_1613_1190)"/>
<path d="M30 15.5C30 23.7843 23.2843 30.5 15 30.5C6.71573 30.5 0 23.7843 0 15.5C0 7.21573 6.71573 0.5 15 0.5C23.2843 0.5 30 7.21573 30 15.5Z" fill="url(#paint1_linear_1613_1190)"/>
<path d="M12.6 20V30.2C12.6 30.3657 12.7343 30.5 12.9 30.5H17.1C17.2657 30.5 17.4 30.3657 17.4 30.2V20C17.4 19.8343 17.5343 19.7 17.7 19.7H20.7C20.8657 19.7 21 19.5657 21 19.4V15.8C21 15.6343 20.8657 15.5 20.7 15.5H17.7C17.5343 15.5 17.4 15.3659 17.4 15.2002V12.5C17.4 11.3 18.9 10.7 19.5 10.7H21.3C21.4657 10.7 21.6 10.5657 21.6 10.4V6.8C21.6 6.63432 21.4657 6.5 21.3 6.5H17.4C14.52 6.5 12.6 9.5 12.6 11.3V15.2C12.6 15.3657 12.4657 15.5 12.3 15.5H9.3C9.13431 15.5 9 15.6343 9 15.8V19.4C9 19.5657 9.13431 19.7 9.3 19.7H12.3C12.4657 19.7 12.6 19.8343 12.6 20Z" fill="white"/>
</g>
<defs>
<linearGradient id="paint0_linear_1613_1190" x1="15" y1="0.5" x2="15" y2="30.5" gradientUnits="userSpaceOnUse">
<stop/>
<stop offset="1"/>
</linearGradient>
<linearGradient id="paint1_linear_1613_1190" x1="15" y1="0.5" x2="15" y2="30.5" gradientUnits="userSpaceOnUse">
<stop/>
<stop offset="1"/>
</linearGradient>
<clipPath id="clip0_1613_1190">
<rect width="30" height="30" fill="white" transform="translate(0 0.5)"/>
</clipPath>
</defs>
</svg>
