<svg width="30" height="30" viewBox="0 0 30 30" fill="none" xmlns="http://www.w3.org/2000/svg">
<g clip-path="url(#clip0_1913_2138)">
<path d="M14.5 10.5C13.3065 10.5 12.1619 10.9741 11.318 11.818C10.4741 12.6619 10 13.8065 10 15C10 16.1935 10.4741 17.3381 11.318 18.182C12.1619 19.0259 13.3065 19.5 14.5 19.5C15.6935 19.5 16.8381 19.0259 17.682 18.182C18.5259 17.3381 19 16.1935 19 15C19 13.8065 18.5259 12.6619 17.682 11.818C16.8381 10.9741 15.6935 10.5 14.5 10.5Z" fill="black"/>
<path fill-rule="evenodd" clip-rule="evenodd" d="M6.25009 0.47133C11.7333 -0.15711 17.2668 -0.15711 22.75 0.47133C25.7455 0.817111 28.1606 3.25552 28.5123 6.36429C29.1626 12.1132 29.1626 17.9208 28.5123 23.6697C28.1606 26.7784 25.7455 29.2168 22.7516 29.5643C17.2679 30.1929 11.7338 30.1929 6.25009 29.5643C3.25455 29.2168 0.839513 26.7784 0.487747 23.6713C-0.162582 17.9219 -0.162582 12.1137 0.487747 6.36429C0.839513 3.25552 3.25455 0.817111 6.25009 0.47133ZM22.3872 5.23072C21.9688 5.23072 21.5676 5.40256 21.2718 5.70844C20.9759 6.01432 20.8097 6.42918 20.8097 6.86176C20.8097 7.29434 20.9759 7.7092 21.2718 8.01508C21.5676 8.32096 21.9688 8.4928 22.3872 8.4928C22.8055 8.4928 23.2068 8.32096 23.5026 8.01508C23.7984 7.7092 23.9646 7.29434 23.9646 6.86176C23.9646 6.42918 23.7984 6.01432 23.5026 5.70844C23.2068 5.40256 22.8055 5.23072 22.3872 5.23072ZM7.00725 15.017C7.00725 12.9622 7.79667 10.9916 9.20184 9.5387C10.607 8.08577 12.5128 7.26952 14.5 7.26952C16.4872 7.26952 18.3931 8.08577 19.7982 9.5387C21.2034 10.9916 21.9928 12.9622 21.9928 15.017C21.9928 17.0717 21.2034 19.0423 19.7982 20.4953C18.3931 21.9482 16.4872 22.7644 14.5 22.7644C12.5128 22.7644 10.607 21.9482 9.20184 20.4953C7.79667 19.0423 7.00725 17.0717 7.00725 15.017Z" fill="black"/>
</g>
<defs>
<clipPath id="clip0_1913_2138">
<rect width="30" height="30" fill="white"/>
</clipPath>
</defs>
</svg>
