<svg width="30" height="26" viewBox="0 0 30 26" fill="none" xmlns="http://www.w3.org/2000/svg">
<path d="M13.7502 14.6152L6.46904 24.7717C6.09363 25.2948 5.46504 25.5651 4.83645 25.4866C4.11183 25.3994 3.11656 25.1292 2.0951 24.3881C1.06492 23.6471 0.497438 22.7927 0.174413 22.1389C-0.10496 21.5635 -0.0438477 20.8835 0.32283 20.3604L7.60399 10.2039C7.95321 9.72443 8.40719 9.3234 8.93102 9.04442L10.3628 8.28595C10.6509 8.13775 10.9041 7.92851 11.1224 7.69313C11.8208 6.9085 13.6804 4.84233 16.9979 1.50333L17.059 1.24179C17.0765 1.18076 17.1201 1.12845 17.1813 1.11973L17.3646 1.07614C17.4432 1.05871 17.4956 0.980246 17.4868 0.901784L17.4694 0.675115C17.4606 0.579217 17.5305 0.500755 17.6265 0.500755C17.8448 0.492037 18.2726 0.561781 18.875 0.988964C19.4774 1.42487 19.6782 1.80846 19.7393 2.01769C19.7655 2.10487 19.7131 2.20077 19.617 2.22692L19.3988 2.27923C19.3202 2.29667 19.2678 2.37513 19.2678 2.45359L19.2853 2.64539C19.294 2.70642 19.2591 2.76744 19.2067 2.80231L18.971 2.9418C16.8757 7.14389 15.5137 9.57622 14.9899 10.4916C14.824 10.7706 14.7193 11.0844 14.6669 11.407L14.4137 13.0111C14.3264 13.5691 14.0994 14.127 13.7502 14.6152ZM29.6745 20.3517L22.3933 10.1952C22.0441 9.71571 21.5901 9.31468 21.0663 9.0357L19.6345 8.27724C19.3464 8.12903 19.0932 7.9198 18.875 7.68441C18.7003 7.49261 18.4559 7.21364 18.1416 6.86491C18.0892 6.81261 18.0019 6.82132 17.967 6.89107C16.867 9.00955 16.1161 10.326 15.7844 10.9188C15.6796 11.1106 15.6011 11.3111 15.5661 11.5203C15.4963 11.9737 15.4963 12.4445 15.5661 12.8978L15.5749 12.9763C15.6709 13.5604 15.8979 14.1183 16.2471 14.6065L23.5283 24.763C23.8949 25.2774 24.5148 25.5564 25.1434 25.4779C25.868 25.3907 26.872 25.1205 27.9022 24.3794C28.9324 23.6384 29.4999 22.784 29.8229 22.1302C30.1023 21.5548 30.0499 20.8748 29.6745 20.3517ZM10.3803 2.20949L10.5985 2.2618C10.6771 2.27923 10.7295 2.35769 10.7295 2.43616L10.712 2.62795C10.7033 2.68898 10.7382 2.75001 10.7906 2.78488L11.0263 2.92437C11.4105 3.70027 11.7771 4.41515 12.1089 5.069C12.1438 5.13003 12.2224 5.14746 12.2748 5.09515C12.8248 4.51105 13.4796 3.8136 14.2566 3.01155C14.3177 2.9418 14.3264 2.83719 14.2566 2.77616C13.8637 2.37513 13.4534 1.95667 12.9994 1.50333L12.9383 1.24179C12.9295 1.18076 12.8772 1.13717 12.8161 1.11973L12.6327 1.07614C12.5541 1.05871 12.5018 0.980246 12.5105 0.901784L12.5279 0.675115C12.5367 0.579217 12.4668 0.500755 12.3708 0.500755C12.1525 0.492037 11.7247 0.553063 11.1136 0.988964C10.5112 1.42487 10.3104 1.80846 10.2493 2.01769C10.2318 2.09615 10.293 2.19205 10.3803 2.20949Z" fill="black"/>
</svg>
