<svg width="213" height="73" viewBox="0 0 213 73" fill="none" xmlns="http://www.w3.org/2000/svg">
<path d="M0.0960197 70.904H-2.90398V73.904H0.0960197V70.904ZM0.0960197 60.824L-1.9 58.5844L-2.90398 59.4792V60.824H0.0960197ZM29.664 34.472L27.6709 32.2298L27.668 32.2324L29.664 34.472ZM34.464 28.664L37.1567 29.9867L34.464 28.664ZM34.32 17.24L31.6846 18.6733L31.6899 18.6832L31.6953 18.6929L34.32 17.24ZM30.192 12.92L28.6277 15.4798L28.6381 15.4862L28.6485 15.4925L30.192 12.92ZM17.808 13.016L19.3449 15.5925L19.3514 15.5885L19.358 15.5846L17.808 13.016ZM13.536 17.384L10.9201 15.9154L13.536 17.384ZM12.096 23.288V26.288H15.1883L15.0946 23.1971L12.096 23.288ZM0.19202 23.288H-2.80798V26.288H0.19202V23.288ZM3.26402 11.24L0.700037 9.68244L0.694698 9.69123L0.689421 9.70005L3.26402 11.24ZM11.808 3.272L10.4291 0.607658L10.4195 0.612663L11.808 3.272ZM36.336 3.41599L34.863 6.02945L34.872 6.03455L34.8811 6.03959L36.336 3.41599ZM44.64 11.576L42.0426 13.0772L42.0487 13.0876L44.64 11.576ZM42.288 38.024L40.1121 35.9587L40.1028 35.9685L40.0936 35.9784L42.288 38.024ZM35.712 44.312L33.7326 42.0577L33.7231 42.0661L35.712 44.312ZM14.736 62.888L11.9194 63.9208L13.4331 68.0491L16.725 65.1339L14.736 62.888ZM13.68 60.008V57.008H9.38471L10.8634 61.0408L13.68 60.008ZM47.664 60.008H50.664V57.008H47.664V60.008ZM47.664 70.904V73.904H50.664V70.904H47.664ZM3.09602 70.904V60.824H-2.90398V70.904H3.09602ZM2.09204 63.0636L31.66 36.7116L27.668 32.2324L-1.9 58.5844L2.09204 63.0636ZM31.6571 36.7142C34.1164 34.5282 36.0243 32.2919 37.1567 29.9867L31.7714 27.3413C31.1117 28.6841 29.8196 30.3198 27.6709 32.2298L31.6571 36.7142ZM37.1567 29.9867C38.2152 27.8318 38.808 25.6207 38.808 23.384H32.808C32.808 24.5393 32.5048 25.8482 31.7714 27.3413L37.1567 29.9867ZM38.808 23.384C38.808 20.6363 38.2124 18.077 36.9447 15.787L31.6953 18.6929C32.4117 19.987 32.808 21.5237 32.808 23.384H38.808ZM36.9555 15.8067C35.7108 13.5181 33.9602 11.6823 31.7355 10.3475L28.6485 15.4925C29.9438 16.2697 30.9453 17.3139 31.6846 18.6733L36.9555 15.8067ZM31.7564 10.3602C29.5017 8.98229 26.9469 8.336 24.192 8.336V14.336C25.9811 14.336 27.4264 14.7457 28.6277 15.4798L31.7564 10.3602ZM24.192 8.336C21.306 8.336 18.6308 9.01559 16.258 10.4474L19.358 15.5846C20.6972 14.7764 22.2781 14.336 24.192 14.336V8.336ZM16.2712 10.4395C14.0041 11.7918 12.2049 13.6268 10.9201 15.9154L16.152 18.8526C16.9152 17.4931 17.964 16.4161 19.3449 15.5925L16.2712 10.4395ZM10.9201 15.9154C9.62634 18.2198 9.01706 20.7278 9.0974 23.3789L15.0946 23.1971C15.047 21.6242 15.3977 20.1962 16.152 18.8526L10.9201 15.9154ZM12.096 20.288H0.19202V26.288H12.096V20.288ZM3.19202 23.288C3.19202 19.1369 4.10979 15.6703 5.83862 12.7799L0.689421 9.70005C-1.67775 13.6577 -2.80798 18.223 -2.80798 23.288H3.19202ZM5.828 12.7976C7.61857 9.85001 10.0562 7.57098 13.1965 5.93134L10.4195 0.612663C6.32786 2.74901 3.06947 5.78198 0.700037 9.68244L5.828 12.7976ZM13.1869 5.93633C16.345 4.30188 20.0666 3.44 24.432 3.44V-2.56C19.2615 -2.56 14.567 -1.53388 10.4291 0.607674L13.1869 5.93633ZM24.432 3.44C28.3812 3.44 31.8336 4.32199 34.863 6.02945L37.8091 0.802536C33.7984 -1.45799 29.3149 -2.56 24.432 -2.56V3.44ZM34.8811 6.03959C37.9252 7.72765 40.2985 10.0595 42.0427 13.0772L47.2374 10.0748C44.9496 6.11649 41.7869 3.00834 37.7909 0.792397L34.8811 6.03959ZM42.0487 13.0876C43.7642 16.0285 44.664 19.4779 44.664 23.528H50.664C50.664 18.5541 49.5479 14.0355 47.2314 10.0644L42.0487 13.0876ZM44.664 23.528C44.664 26.5731 44.2473 28.9361 43.5346 30.7178L49.1055 32.9462C50.1848 30.2479 50.664 27.0749 50.664 23.528H44.664ZM43.5346 30.7178C42.7905 32.578 41.6633 34.3244 40.1121 35.9587L44.4639 40.0893C46.4967 37.9476 48.0575 35.5659 49.1055 32.9462L43.5346 30.7178ZM40.0936 35.9784C38.4207 37.7729 36.3058 39.7983 33.7326 42.0577L37.6914 46.5663C40.3663 44.2177 42.6353 42.051 44.4824 40.0696L40.0936 35.9784ZM33.7231 42.0661L12.7471 60.6421L16.725 65.1339L37.701 46.5579L33.7231 42.0661ZM17.5527 61.8552L16.4967 58.9752L10.8634 61.0408L11.9194 63.9208L17.5527 61.8552ZM13.68 63.008H47.664V57.008H13.68V63.008ZM44.664 60.008V70.904H50.664V60.008H44.664ZM47.664 67.904H0.0960197V73.904H47.664V67.904ZM71.1075 69.32L69.6336 71.9329L69.6421 71.9377L69.6506 71.9425L71.1075 69.32ZM62.3235 60.536L59.701 61.9929L59.7058 62.0015L59.7106 62.01L62.3235 60.536ZM62.3235 12.344L59.7106 10.87L59.7058 10.8785L59.701 10.8871L62.3235 12.344ZM71.1075 3.608L72.5644 6.23047L72.573 6.22573L72.5815 6.22093L71.1075 3.608ZM96.9795 3.608L95.4959 6.21549L95.5092 6.22305L95.5226 6.23047L96.9795 3.608ZM105.764 12.344L103.151 13.818H103.151L105.764 12.344ZM105.764 60.536L103.151 59.062L105.764 60.536ZM96.9795 69.32L98.446 71.9371L98.4535 71.9329L96.9795 69.32ZM90.6915 59.72L92.1979 62.3144L92.2135 62.3053L92.2289 62.2961L90.6915 59.72ZM95.3955 55.016L97.9791 56.5408L97.9846 56.5316L97.9899 56.5224L95.3955 55.016ZM95.3955 17.816L92.8012 19.3224L92.8065 19.3316L92.8119 19.3408L95.3955 17.816ZM90.6915 13.112L89.1542 15.6881L89.1696 15.6973L89.1851 15.7064L90.6915 13.112ZM77.4435 13.112L78.9499 15.7064L78.9655 15.6973L78.9809 15.6881L77.4435 13.112ZM72.7395 17.816L75.3231 19.3408L75.3286 19.3316L75.3339 19.3224L72.7395 17.816ZM72.7395 55.016L70.1452 56.5224L70.1505 56.5316L70.1559 56.5408L72.7395 55.016ZM77.4435 59.72L75.9062 62.2961L75.9216 62.3053L75.9371 62.3144L77.4435 59.72ZM84.0675 69.44C79.6075 69.44 75.8024 68.4964 72.5645 66.6975L69.6506 71.9425C73.9007 74.3036 78.7356 75.44 84.0675 75.44V69.44ZM72.5815 66.7071C69.3139 64.8638 66.7797 62.3297 64.9365 59.062L59.7106 62.01C62.0913 66.2303 65.4132 69.5522 69.6336 71.9329L72.5815 66.7071ZM64.946 59.0791C63.1472 55.8412 62.2035 52.036 62.2035 47.576H56.2035C56.2035 52.9079 57.3399 57.7428 59.701 61.9929L64.946 59.0791ZM62.2035 47.576V25.304H56.2035V47.576H62.2035ZM62.2035 25.304C62.2035 20.8439 63.1472 17.0388 64.946 13.8009L59.701 10.8871C57.3399 15.1372 56.2035 19.9721 56.2035 25.304H62.2035ZM64.9365 13.818C66.7775 10.5543 69.3062 8.04058 72.5644 6.23047L69.6506 0.985527C65.4208 3.33541 62.0935 6.64573 59.7106 10.87L64.9365 13.818ZM72.5815 6.22093C75.8162 4.39621 79.6151 3.44 84.0675 3.44V-2.56C78.7279 -2.56 73.8868 -1.40422 69.6336 0.995064L72.5815 6.22093ZM84.0675 3.44C88.5205 3.44 92.2988 4.3964 95.4959 6.21549L98.4631 1.00051C94.2363 -1.4044 89.4065 -2.56 84.0675 -2.56V3.44ZM95.5226 6.23047C98.7808 8.04058 101.31 10.5543 103.151 13.818L108.376 10.87C105.994 6.64573 102.666 3.33541 98.4364 0.985527L95.5226 6.23047ZM103.151 13.818C104.975 17.0527 105.932 20.8516 105.932 25.304H111.932C111.932 19.9644 110.776 15.1233 108.376 10.87L103.151 13.818ZM105.932 25.304V47.576H111.932V25.304H105.932ZM105.932 47.576C105.932 52.0284 104.975 55.8273 103.151 59.062L108.376 62.01C110.776 57.7567 111.932 52.9156 111.932 47.576H105.932ZM103.151 59.062C101.307 62.3297 98.7732 64.8638 95.5056 66.7071L98.4535 71.9329C102.674 69.5522 105.996 66.2303 108.376 62.01L103.151 59.062ZM95.513 66.7029C92.3127 68.4962 88.5282 69.44 84.0675 69.44V75.44C89.3988 75.44 94.2224 74.3038 98.446 71.9371L95.513 66.7029ZM84.0675 64.448C86.9956 64.448 89.7286 63.7481 92.1979 62.3144L89.1851 57.1256C87.6864 57.9958 86.0034 58.448 84.0675 58.448V64.448ZM92.2289 62.2961C94.6354 60.86 96.5668 58.9339 97.9791 56.5408L92.8119 53.4912C91.9203 55.0021 90.7156 56.212 89.1542 57.1439L92.2289 62.2961ZM97.9899 56.5224C99.4237 54.0531 100.124 51.3201 100.124 48.392H94.1235C94.1235 50.3279 93.6714 52.0109 92.8012 53.5096L97.9899 56.5224ZM100.124 48.392V24.44H94.1235V48.392H100.124ZM100.124 24.44C100.124 21.4879 99.4273 18.745 97.9791 16.2912L92.8119 19.3408C93.6678 20.791 94.1235 22.4641 94.1235 24.44H100.124ZM97.9899 16.3096C96.576 13.8745 94.633 11.9315 92.1979 10.5176L89.1851 15.7064C90.718 16.5965 91.9111 17.7895 92.8012 19.3224L97.9899 16.3096ZM92.2289 10.5359C89.7552 9.05962 87.0111 8.336 84.0675 8.336V14.336C85.9879 14.336 87.6598 14.7964 89.1542 15.6881L92.2289 10.5359ZM84.0675 8.336C81.1239 8.336 78.3798 9.05962 75.9062 10.5359L78.9809 15.6881C80.4752 14.7964 82.1471 14.336 84.0675 14.336V8.336ZM75.9371 10.5176C73.5021 11.9315 71.5591 13.8745 70.1452 16.3096L75.3339 19.3224C76.224 17.7895 77.417 16.5965 78.9499 15.7064L75.9371 10.5176ZM70.1559 16.2912C68.7078 18.745 68.0115 21.4879 68.0115 24.44H74.0115C74.0115 22.4641 74.4673 20.791 75.3231 19.3408L70.1559 16.2912ZM68.0115 24.44V48.392H74.0115V24.44H68.0115ZM68.0115 48.392C68.0115 51.3201 68.7114 54.0531 70.1452 56.5224L75.3339 53.5096C74.4637 52.0109 74.0115 50.3279 74.0115 48.392H68.0115ZM70.1559 56.5408C71.5683 58.9339 73.4996 60.86 75.9062 62.2961L78.9809 57.1439C77.4194 56.212 76.2148 55.0021 75.3231 53.4912L70.1559 56.5408ZM75.9371 62.3144C78.4064 63.7481 81.1394 64.448 84.0675 64.448V58.448C82.1316 58.448 80.4486 57.9958 78.9499 57.1256L75.9371 62.3144ZM134.391 71H131.391V74H134.391V71ZM134.391 14.504H137.391V9.15483L132.827 11.9442L134.391 14.504ZM121.431 22.424H118.431V27.7732L122.995 24.9838L121.431 22.424ZM121.431 9.65599L119.888 7.08352L118.431 7.95742V9.65599H121.431ZM134.391 1.88V-1.12H133.56L132.848 -0.692482L134.391 1.88ZM146.199 1.88H149.199V-1.12H146.199V1.88ZM146.199 71V74H149.199V71H146.199ZM137.391 71V14.504H131.391V71H137.391ZM132.827 11.9442L119.867 19.8642L122.995 24.9838L135.955 17.0638L132.827 11.9442ZM124.431 22.424V9.65599H118.431V22.424H124.431ZM122.975 12.2285L135.935 4.45248L132.848 -0.692482L119.888 7.08352L122.975 12.2285ZM134.391 4.88H146.199V-1.12H134.391V4.88ZM143.199 1.88V71H149.199V1.88H143.199ZM146.199 68H134.391V74H146.199V68ZM176.197 69.272L174.657 71.8465L174.67 71.8546L174.684 71.8625L176.197 69.272ZM167.653 60.392L170.271 58.9275L167.653 60.392ZM167.605 12.68L164.971 11.2434L164.966 11.2519L164.962 11.2603L167.605 12.68ZM176.437 3.70399L174.982 1.08047L174.972 1.08572L176.437 3.70399ZM199.621 2.312L198.561 5.11862L198.574 5.12337L198.586 5.128L199.621 2.312ZM207.973 7.88L210.063 10.032L212.191 7.96482L210.148 5.81375L207.973 7.88ZM199.621 15.992L197.329 17.9275L199.404 20.3849L201.711 18.144L199.621 15.992ZM195.157 12.584L193.855 15.287L193.865 15.2916L193.875 15.2962L195.157 12.584ZM182.629 13.256L184.208 15.8068L184.222 15.7978L184.237 15.7886L182.629 13.256ZM177.925 18.2L175.293 16.7606L175.284 16.7765L175.275 16.7925L177.925 18.2ZM176.293 36.248L174.081 38.2752L179.293 43.9604V36.248H176.293ZM174.181 33.944L171.907 31.9864L170.168 34.0063L171.969 35.9712L174.181 33.944ZM181.333 28.568L182.586 31.2937L182.599 31.2878L182.612 31.2817L181.333 28.568ZM201.589 29.576L200.053 32.1528L200.062 32.1583L200.071 32.1637L201.589 29.576ZM209.461 37.64L206.844 39.1073L206.85 39.1178L209.461 37.64ZM209.029 61.016L206.487 59.4218L206.483 59.4281L209.029 61.016ZM200.341 69.368L201.819 71.9784L201.828 71.9735L201.837 71.9685L200.341 69.368ZM194.533 59.768L196.016 62.3755L196.033 62.3659L196.05 62.3561L194.533 59.768ZM198.949 55.4L196.38 53.85L196.376 53.8566L196.372 53.8632L198.949 55.4ZM198.997 43.112L196.409 44.6292L198.997 43.112ZM194.581 38.696L193.011 41.2525L193.037 41.2686L193.064 41.2841L194.581 38.696ZM182.341 38.696L183.858 41.2841L183.874 41.2744L183.891 41.2646L182.341 38.696ZM177.877 55.304L175.269 56.7876L175.285 56.8144L175.3 56.8408L177.877 55.304ZM182.245 59.72L180.675 62.2765L180.701 62.2926L180.728 62.3081L182.245 59.72ZM188.389 69.44C184.366 69.44 180.831 68.5046 177.71 66.6815L174.684 71.8625C178.794 74.2634 183.388 75.44 188.389 75.44V69.44ZM177.737 66.6975C174.62 64.8328 172.137 62.2628 170.271 58.9275L165.035 61.8565C167.393 66.0732 170.606 69.4232 174.657 71.8465L177.737 66.6975ZM170.271 58.9275C168.441 55.6553 167.485 51.8358 167.485 47.384H161.485C161.485 52.7242 162.641 57.5767 165.035 61.8565L170.271 58.9275ZM167.485 47.384V26.36H161.485V47.384H167.485ZM167.485 26.36C167.485 21.5117 168.444 17.458 170.248 14.0997L164.962 11.2603C162.606 15.646 161.485 20.7123 161.485 26.36H167.485ZM170.238 14.1166C172.085 10.7305 174.629 8.15276 177.901 6.32227L174.972 1.08572C170.693 3.47923 167.348 6.88544 164.971 11.2434L170.238 14.1166ZM177.892 6.32751C181.19 4.49812 185.091 3.536 189.685 3.536V-2.464C184.231 -2.464 179.299 -1.31413 174.982 1.08049L177.892 6.32751ZM189.685 3.536C192.826 3.536 195.777 4.06764 198.561 5.11862L200.68 -0.494633C197.192 -1.81165 193.52 -2.464 189.685 -2.464V3.536ZM198.586 5.128C201.265 6.11201 203.665 7.70096 205.798 9.94624L210.148 5.81375C207.417 2.93903 204.249 0.815979 200.655 -0.504013L198.586 5.128ZM205.883 5.72798L197.531 13.84L201.711 18.144L210.063 10.032L205.883 5.72798ZM201.913 14.0565C200.41 12.2773 198.574 10.8812 196.439 9.87178L193.875 15.2962C195.259 15.9508 196.399 16.8267 197.329 17.9275L201.913 14.0565ZM196.458 9.881C194.324 8.85328 192.055 8.336 189.685 8.336V14.336C191.155 14.336 192.534 14.6507 193.855 15.287L196.458 9.881ZM189.685 8.336C186.501 8.336 183.576 9.10089 181.021 10.7234L184.237 15.7886C185.713 14.8511 187.493 14.336 189.685 14.336V8.336ZM181.05 10.7052C178.6 12.2218 176.666 14.2498 175.293 16.7606L180.557 19.6394C181.424 18.0542 182.626 16.7862 184.208 15.8068L181.05 10.7052ZM175.275 16.7925C173.955 19.2772 173.293 21.953 173.293 24.776H179.293C179.293 22.927 179.718 21.2188 180.574 19.6075L175.275 16.7925ZM173.293 24.776V36.248H179.293V24.776H173.293ZM178.504 34.2208L176.392 31.9168L171.969 35.9712L174.081 38.2752L178.504 34.2208ZM176.454 35.9016C178.155 33.9265 180.19 32.3953 182.586 31.2937L180.08 25.8423C176.908 27.3007 174.175 29.3535 171.907 31.9864L176.454 35.9016ZM182.612 31.2817C185.001 30.1558 187.477 29.6 190.069 29.6V23.6C186.581 23.6 183.233 24.3562 180.054 25.8542L182.612 31.2817ZM190.069 29.6C193.948 29.6 197.244 30.4788 200.053 32.1528L203.125 26.9992C199.277 24.7052 194.893 23.6 190.069 23.6V29.6ZM200.071 32.1637C202.931 33.8415 205.18 36.1391 206.844 39.1073L212.077 36.1727C209.902 32.2928 206.902 29.2145 203.107 26.9883L200.071 32.1637ZM206.85 39.1178C208.486 42.0083 209.341 45.3603 209.341 49.256H215.341C215.341 44.4477 214.275 40.0557 212.072 36.1622L206.85 39.1178ZM209.341 49.256C209.341 53.0356 208.383 56.3991 206.487 59.4219L211.57 62.6101C214.09 58.5929 215.341 54.1164 215.341 49.256H209.341ZM206.483 59.4281C204.573 62.491 202.04 64.9298 198.845 66.7675L201.837 71.9685C205.874 69.6462 209.133 66.517 211.574 62.6039L206.483 59.4281ZM198.862 66.7576C195.719 68.538 192.248 69.44 188.389 69.44V75.44C193.234 75.44 197.731 74.294 201.819 71.9784L198.862 66.7576ZM188.389 64.352C191.122 64.352 193.686 63.7015 196.016 62.3755L193.049 57.1605C191.668 57.9465 190.135 58.352 188.389 58.352V64.352ZM196.05 62.3561C198.336 61.016 200.175 59.2007 201.525 56.9368L196.372 53.8632C195.547 55.2473 194.442 56.344 193.016 57.1799L196.05 62.3561ZM201.517 56.95C202.929 54.6102 203.629 52.0232 203.629 49.256H197.629C197.629 50.9688 197.208 52.4778 196.38 53.85L201.517 56.95ZM203.629 49.256C203.629 46.5056 202.954 43.9303 201.585 41.5948L196.409 44.6292C197.216 46.0057 197.629 47.5264 197.629 49.256H203.629ZM201.585 41.5948C200.237 39.2961 198.397 37.4554 196.098 36.1079L193.064 41.2841C194.477 42.1126 195.58 43.2159 196.409 44.6292L201.585 41.5948ZM196.151 36.1395C193.832 34.7157 191.252 34.016 188.485 34.016V40.016C190.198 40.016 191.682 40.4363 193.011 41.2525L196.151 36.1395ZM188.485 34.016C185.718 34.016 183.131 34.7155 180.791 36.1274L183.891 41.2646C185.263 40.4365 186.772 40.016 188.485 40.016V34.016ZM180.824 36.1079C178.525 37.4554 176.684 39.2961 175.337 41.5948L180.513 44.6292C181.341 43.2159 182.445 42.1126 183.858 41.2841L180.824 36.1079ZM175.337 41.5948C173.968 43.9303 173.293 46.5056 173.293 49.256H179.293C179.293 47.5264 179.706 46.0057 180.513 44.6292L175.337 41.5948ZM173.293 49.256C173.293 51.9418 173.951 54.4705 175.269 56.7876L180.484 53.8204C179.691 52.4255 179.293 50.9222 179.293 49.256H173.293ZM175.3 56.8408C176.639 59.0844 178.441 60.905 180.675 62.2765L183.815 57.1635C182.4 56.295 181.291 55.1716 180.453 53.7672L175.3 56.8408ZM180.728 62.3081C183.063 63.6772 185.638 64.352 188.389 64.352V58.352C186.659 58.352 185.138 57.9388 183.762 57.1319L180.728 62.3081Z" fill="#464646"/>
</svg>
