<svg width="215" height="73" viewBox="0 0 215 73" fill="none" xmlns="http://www.w3.org/2000/svg">
<path d="M0.31477 70.904H-2.68523V73.904H0.31477V70.904ZM0.31477 60.824L-1.68125 58.5844L-2.68523 59.4792V60.824H0.31477ZM29.8828 34.472L27.8897 32.2298L27.8867 32.2324L29.8828 34.472ZM34.6828 28.664L37.3754 29.9867L34.6828 28.664ZM34.5388 17.24L31.9033 18.6733L31.9087 18.6832L31.9141 18.6929L34.5388 17.24ZM30.4108 12.92L28.8464 15.4798L28.8568 15.4862L28.8673 15.4925L30.4108 12.92ZM18.0268 13.016L19.5636 15.5925L19.5702 15.5885L19.5768 15.5846L18.0268 13.016ZM13.7548 17.384L11.1388 15.9154L13.7548 17.384ZM12.3148 23.288V26.288H15.4071L15.3134 23.1971L12.3148 23.288ZM0.41077 23.288H-2.58923V26.288H0.41077V23.288ZM3.48277 11.24L0.918787 9.68244L0.913448 9.69123L0.908171 9.70005L3.48277 11.24ZM12.0268 3.272L10.6479 0.607658L10.6383 0.612663L12.0268 3.272ZM36.5548 3.41599L35.0817 6.02945L35.0908 6.03455L35.0999 6.03959L36.5548 3.41599ZM44.8588 11.576L42.2614 13.0772L42.2674 13.0876L44.8588 11.576ZM42.5068 38.024L40.3309 35.9587L40.3216 35.9685L40.3124 35.9784L42.5068 38.024ZM35.9308 44.312L33.9514 42.0577L33.9418 42.0661L35.9308 44.312ZM14.9548 62.888L12.1381 63.9208L13.6519 68.0491L16.9437 65.1339L14.9548 62.888ZM13.8988 60.008V57.008H9.60346L11.0821 61.0408L13.8988 60.008ZM47.8828 60.008H50.8828V57.008H47.8828V60.008ZM47.8828 70.904V73.904H50.8828V70.904H47.8828ZM3.31477 70.904V60.824H-2.68523V70.904H3.31477ZM2.31079 63.0636L31.8788 36.7116L27.8867 32.2324L-1.68125 58.5844L2.31079 63.0636ZM31.8759 36.7142C34.3352 34.5282 36.2431 32.2919 37.3754 29.9867L31.9901 27.3413C31.3305 28.6841 30.0384 30.3198 27.8897 32.2298L31.8759 36.7142ZM37.3754 29.9867C38.434 27.8318 39.0268 25.6207 39.0268 23.384H33.0268C33.0268 24.5393 32.7235 25.8482 31.9901 27.3413L37.3754 29.9867ZM39.0268 23.384C39.0268 20.6363 38.4311 18.077 37.1635 15.787L31.9141 18.6929C32.6304 19.987 33.0268 21.5237 33.0268 23.384H39.0268ZM37.1742 15.8067C35.9295 13.5181 34.179 11.6823 31.9543 10.3475L28.8673 15.4925C30.1626 16.2697 31.164 17.3139 31.9033 18.6733L37.1742 15.8067ZM31.9751 10.3602C29.7204 8.98229 27.1657 8.336 24.4108 8.336V14.336C26.1998 14.336 27.6451 14.7457 28.8464 15.4798L31.9751 10.3602ZM24.4108 8.336C21.5247 8.336 18.8495 9.01559 16.4768 10.4474L19.5768 15.5846C20.916 14.7764 22.4968 14.336 24.4108 14.336V8.336ZM16.4899 10.4395C14.2228 11.7918 12.4236 13.6268 11.1388 15.9154L16.3707 18.8526C17.1339 17.4931 18.1827 16.4161 19.5636 15.5925L16.4899 10.4395ZM11.1388 15.9154C9.84509 18.2198 9.23581 20.7278 9.31615 23.3789L15.3134 23.1971C15.2657 21.6242 15.6164 20.1962 16.3707 18.8526L11.1388 15.9154ZM12.3148 20.288H0.41077V26.288H12.3148V20.288ZM3.41077 23.288C3.41077 19.1369 4.32854 15.6703 6.05737 12.7799L0.908171 9.70005C-1.459 13.6577 -2.58923 18.223 -2.58923 23.288H3.41077ZM6.04675 12.7976C7.83732 9.85001 10.2749 7.57098 13.4153 5.93134L10.6383 0.612663C6.54661 2.74901 3.28822 5.78198 0.918787 9.68244L6.04675 12.7976ZM13.4057 5.93633C16.5638 4.30188 20.2853 3.44 24.6508 3.44V-2.56C19.4802 -2.56 14.7858 -1.53388 10.6479 0.607674L13.4057 5.93633ZM24.6508 3.44C28.5999 3.44 32.0524 4.32199 35.0817 6.02945L38.0278 0.802536C34.0172 -1.45799 29.5336 -2.56 24.6508 -2.56V3.44ZM35.0999 6.03959C38.1439 7.72765 40.5172 10.0595 42.2614 13.0772L47.4561 10.0748C45.1683 6.11649 42.0056 3.00834 38.0097 0.792397L35.0999 6.03959ZM42.2674 13.0876C43.9829 16.0285 44.8828 19.4779 44.8828 23.528H50.8828C50.8828 18.5541 49.7666 14.0355 47.4501 10.0644L42.2674 13.0876ZM44.8828 23.528C44.8828 26.5731 44.466 28.9361 43.7533 30.7178L49.3242 32.9462C50.4035 30.2479 50.8828 27.0749 50.8828 23.528H44.8828ZM43.7533 30.7178C43.0093 32.578 41.8821 34.3244 40.3309 35.9587L44.6827 40.0893C46.7155 37.9476 48.2763 35.5659 49.3242 32.9462L43.7533 30.7178ZM40.3124 35.9784C38.6395 37.7729 36.5245 39.7983 33.9514 42.0577L37.9102 46.5663C40.585 44.2177 42.8541 42.051 44.7012 40.0696L40.3124 35.9784ZM33.9418 42.0661L12.9658 60.6421L16.9437 65.1339L37.9197 46.5579L33.9418 42.0661ZM17.7714 61.8552L16.7154 58.9752L11.0821 61.0408L12.1381 63.9208L17.7714 61.8552ZM13.8988 63.008H47.8828V57.008H13.8988V63.008ZM44.8828 60.008V70.904H50.8828V60.008H44.8828ZM47.8828 67.904H0.31477V73.904H47.8828V67.904ZM71.3263 69.32L69.8523 71.9329L69.8608 71.9377L69.8693 71.9425L71.3263 69.32ZM62.5423 60.536L59.9198 61.9929L59.9245 62.0015L59.9293 62.01L62.5423 60.536ZM62.5423 12.344L59.9293 10.87L59.9245 10.8785L59.9198 10.8871L62.5423 12.344ZM71.3263 3.608L72.7832 6.23047L72.7917 6.22573L72.8002 6.22093L71.3263 3.608ZM97.1983 3.608L95.7147 6.21549L95.728 6.22305L95.7413 6.23047L97.1983 3.608ZM105.982 12.344L103.369 13.818H103.369L105.982 12.344ZM105.982 60.536L103.369 59.062L105.982 60.536ZM97.1983 69.32L98.6648 71.9371L98.6722 71.9329L97.1983 69.32ZM90.9103 59.72L92.4167 62.3144L92.4322 62.3053L92.4476 62.2961L90.9103 59.72ZM95.6143 55.016L98.1979 56.5408L98.2033 56.5316L98.2086 56.5224L95.6143 55.016ZM95.6143 17.816L93.0199 19.3224L93.0252 19.3316L93.0306 19.3408L95.6143 17.816ZM90.9103 13.112L89.3729 15.6881L89.3883 15.6973L89.4039 15.7064L90.9103 13.112ZM77.6623 13.112L79.1687 15.7064L79.1842 15.6973L79.1996 15.6881L77.6623 13.112ZM72.9583 17.816L75.5419 19.3408L75.5473 19.3316L75.5526 19.3224L72.9583 17.816ZM72.9583 55.016L70.3639 56.5224L70.3692 56.5316L70.3746 56.5408L72.9583 55.016ZM77.6623 59.72L76.1249 62.2961L76.1403 62.3053L76.1559 62.3144L77.6623 59.72ZM84.2863 69.44C79.8262 69.44 76.0211 68.4964 72.7832 66.6975L69.8693 71.9425C74.1194 74.3036 78.9543 75.44 84.2863 75.44V69.44ZM72.8002 66.7071C69.5326 64.8638 66.9985 62.3297 65.1552 59.062L59.9293 62.01C62.3101 66.2303 65.6319 69.5522 69.8523 71.9329L72.8002 66.7071ZM65.1647 59.0791C63.3659 55.8412 62.4223 52.036 62.4223 47.576H56.4223C56.4223 52.9079 57.5586 57.7428 59.9198 61.9929L65.1647 59.0791ZM62.4223 47.576V25.304H56.4223V47.576H62.4223ZM62.4223 25.304C62.4223 20.8439 63.3659 17.0388 65.1647 13.8009L59.9198 10.8871C57.5586 15.1372 56.4223 19.9721 56.4223 25.304H62.4223ZM65.1552 13.818C66.9963 10.5543 69.525 8.04058 72.7832 6.23047L69.8693 0.985527C65.6396 3.33541 62.3123 6.64573 59.9293 10.87L65.1552 13.818ZM72.8002 6.22093C76.035 4.39621 79.8339 3.44 84.2863 3.44V-2.56C78.9467 -2.56 74.1056 -1.40422 69.8523 0.995064L72.8002 6.22093ZM84.2863 3.44C88.7393 3.44 92.5175 4.3964 95.7147 6.21549L98.6818 1.00051C94.455 -1.4044 89.6253 -2.56 84.2863 -2.56V3.44ZM95.7413 6.23047C98.9996 8.04058 101.528 10.5543 103.369 13.818L108.595 10.87C106.212 6.64573 102.885 3.33541 98.6552 0.985527L95.7413 6.23047ZM103.369 13.818C105.194 17.0527 106.15 20.8516 106.15 25.304H112.15C112.15 19.9644 110.994 15.1233 108.595 10.87L103.369 13.818ZM106.15 25.304V47.576H112.15V25.304H106.15ZM106.15 47.576C106.15 52.0284 105.194 55.8273 103.369 59.062L108.595 62.01C110.994 57.7567 112.15 52.9156 112.15 47.576H106.15ZM103.369 59.062C101.526 62.3297 98.9919 64.8638 95.7243 66.7071L98.6722 71.9329C102.893 69.5522 106.214 66.2303 108.595 62.01L103.369 59.062ZM95.7318 66.7029C92.5314 68.4962 88.747 69.44 84.2863 69.44V75.44C89.6176 75.44 94.4411 74.3038 98.6648 71.9371L95.7318 66.7029ZM84.2863 64.448C87.2144 64.448 89.9474 63.7481 92.4167 62.3144L89.4039 57.1256C87.9052 57.9958 86.2221 58.448 84.2863 58.448V64.448ZM92.4476 62.2961C94.8542 60.86 96.7855 58.9339 98.1979 56.5408L93.0306 53.4912C92.139 55.0021 90.9343 56.212 89.3729 57.1439L92.4476 62.2961ZM98.2086 56.5224C99.6424 54.0531 100.342 51.3201 100.342 48.392H94.3423C94.3423 50.3279 93.8901 52.0109 93.0199 53.5096L98.2086 56.5224ZM100.342 48.392V24.44H94.3423V48.392H100.342ZM100.342 24.44C100.342 21.4879 99.646 18.745 98.1979 16.2912L93.0306 19.3408C93.8865 20.791 94.3423 22.4641 94.3423 24.44H100.342ZM98.2086 16.3096C96.7947 13.8745 94.8517 11.9315 92.4167 10.5176L89.4039 15.7064C90.9368 16.5965 92.1298 17.7895 93.0199 19.3224L98.2086 16.3096ZM92.4476 10.5359C89.974 9.05962 87.2299 8.336 84.2863 8.336V14.336C86.2067 14.336 87.8786 14.7964 89.3729 15.6881L92.4476 10.5359ZM84.2863 8.336C81.3427 8.336 78.5986 9.05962 76.1249 10.5359L79.1996 15.6881C80.694 14.7964 82.3659 14.336 84.2863 14.336V8.336ZM76.1559 10.5176C73.7208 11.9315 71.7778 13.8745 70.3639 16.3096L75.5526 19.3224C76.4427 17.7895 77.6357 16.5965 79.1687 15.7064L76.1559 10.5176ZM70.3746 16.2912C68.9265 18.745 68.2303 21.4879 68.2303 24.44H74.2303C74.2303 22.4641 74.686 20.791 75.5419 19.3408L70.3746 16.2912ZM68.2303 24.44V48.392H74.2303V24.44H68.2303ZM68.2303 48.392C68.2303 51.3201 68.9301 54.0531 70.3639 56.5224L75.5526 53.5096C74.6824 52.0109 74.2303 50.3279 74.2303 48.392H68.2303ZM70.3746 56.5408C71.787 58.9339 73.7184 60.86 76.1249 62.2961L79.1996 57.1439C77.6382 56.212 76.4335 55.0021 75.5419 53.4912L70.3746 56.5408ZM76.1559 62.3144C78.6252 63.7481 81.3581 64.448 84.2863 64.448V58.448C82.3504 58.448 80.6674 57.9958 79.1687 57.1256L76.1559 62.3144ZM134.61 71H131.61V74H134.61V71ZM134.61 14.504H137.61V9.15483L133.045 11.9442L134.61 14.504ZM121.65 22.424H118.65V27.7732L123.214 24.9838L121.65 22.424ZM121.65 9.65599L120.106 7.08352L118.65 7.95742V9.65599H121.65ZM134.61 1.88V-1.12H133.779L133.066 -0.692482L134.61 1.88ZM146.418 1.88H149.418V-1.12H146.418V1.88ZM146.418 71V74H149.418V71H146.418ZM137.61 71V14.504H131.61V71H137.61ZM133.045 11.9442L120.085 19.8642L123.214 24.9838L136.174 17.0638L133.045 11.9442ZM124.65 22.424V9.65599H118.65V22.424H124.65ZM123.193 12.2285L136.153 4.45248L133.066 -0.692482L120.106 7.08352L123.193 12.2285ZM134.61 4.88H146.418V-1.12H134.61V4.88ZM143.418 1.88V71H149.418V1.88H143.418ZM146.418 68H134.61V74H146.418V68ZM176.608 69.32L175.134 71.9329L175.142 71.9377L175.151 71.9425L176.608 69.32ZM167.824 60.536L165.201 61.9929L165.206 62.0015L165.211 62.01L167.824 60.536ZM167.824 12.344L165.211 10.87L165.206 10.8785L165.201 10.8871L167.824 12.344ZM176.608 3.608L178.064 6.23047L178.073 6.22573L178.081 6.22093L176.608 3.608ZM202.48 3.608L200.996 6.21549L201.009 6.22305L201.023 6.23047L202.48 3.608ZM211.264 12.344L208.651 13.818L211.264 12.344ZM211.264 60.536L208.651 59.062L211.264 60.536ZM202.48 69.32L203.946 71.9371L203.953 71.9329L202.48 69.32ZM196.192 59.72L197.698 62.3144L197.713 62.3053L197.729 62.2961L196.192 59.72ZM200.896 55.016L203.479 56.5408L203.485 56.5316L203.49 56.5224L200.896 55.016ZM200.896 17.816L198.301 19.3224L198.307 19.3316L198.312 19.3408L200.896 17.816ZM196.192 13.112L194.654 15.6881L194.67 15.6973L194.685 15.7064L196.192 13.112ZM182.944 13.112L184.45 15.7064L184.465 15.6973L184.481 15.6881L182.944 13.112ZM178.24 17.816L180.823 19.3408L180.829 19.3316L180.834 19.3224L178.24 17.816ZM178.24 55.016L175.645 56.5224L175.65 56.5316L175.656 56.5408L178.24 55.016ZM182.944 59.72L181.406 62.2961L181.422 62.3053L181.437 62.3144L182.944 59.72ZM189.568 69.44C185.107 69.44 181.302 68.4964 178.064 66.6975L175.151 71.9425C179.401 74.3036 184.236 75.44 189.568 75.44V69.44ZM178.081 66.7071C174.814 64.8638 172.28 62.3297 170.436 59.062L165.211 62.01C167.591 66.2303 170.913 69.5522 175.134 71.9329L178.081 66.7071ZM170.446 59.0791C168.647 55.8412 167.704 52.036 167.704 47.576H161.704C161.704 52.9079 162.84 57.7428 165.201 61.9929L170.446 59.0791ZM167.704 47.576V25.304H161.704V47.576H167.704ZM167.704 25.304C167.704 20.8439 168.647 17.0388 170.446 13.8009L165.201 10.8871C162.84 15.1372 161.704 19.9721 161.704 25.304H167.704ZM170.436 13.818C172.278 10.5543 174.806 8.04058 178.064 6.23047L175.151 0.985527C170.921 3.33541 167.594 6.64573 165.211 10.87L170.436 13.818ZM178.081 6.22093C181.316 4.39621 185.115 3.44 189.568 3.44V-2.56C184.228 -2.56 179.387 -1.40422 175.134 0.995064L178.081 6.22093ZM189.568 3.44C194.021 3.44 197.799 4.3964 200.996 6.21549L203.963 1.00051C199.736 -1.4044 194.907 -2.56 189.568 -2.56V3.44ZM201.023 6.23047C204.281 8.04058 206.81 10.5543 208.651 13.818L213.876 10.87C211.494 6.64573 208.166 3.33541 203.936 0.985527L201.023 6.23047ZM208.651 13.818C210.475 17.0527 211.432 20.8516 211.432 25.304H217.432C217.432 19.9644 216.276 15.1233 213.876 10.87L208.651 13.818ZM211.432 25.304V47.576H217.432V25.304H211.432ZM211.432 47.576C211.432 52.0284 210.475 55.8273 208.651 59.062L213.876 62.01C216.276 57.7567 217.432 52.9156 217.432 47.576H211.432ZM208.651 59.062C206.807 62.3297 204.273 64.8638 201.006 66.7071L203.953 71.9329C208.174 69.5522 211.496 66.2303 213.876 62.01L208.651 59.062ZM201.013 66.7029C197.813 68.4962 194.028 69.44 189.568 69.44V75.44C194.899 75.44 199.722 74.3038 203.946 71.9371L201.013 66.7029ZM189.568 64.448C192.496 64.448 195.229 63.7481 197.698 62.3144L194.685 57.1256C193.186 57.9958 191.503 58.448 189.568 58.448V64.448ZM197.729 62.2961C200.135 60.86 202.067 58.9339 203.479 56.5408L198.312 53.4912C197.42 55.0021 196.216 56.212 194.654 57.1439L197.729 62.2961ZM203.49 56.5224C204.924 54.0531 205.624 51.3201 205.624 48.392H199.624C199.624 50.3279 199.171 52.0109 198.301 53.5096L203.49 56.5224ZM205.624 48.392V24.44H199.624V48.392H205.624ZM205.624 24.44C205.624 21.4879 204.927 18.745 203.479 16.2912L198.312 19.3408C199.168 20.791 199.624 22.4641 199.624 24.44H205.624ZM203.49 16.3096C202.076 13.8745 200.133 11.9315 197.698 10.5176L194.685 15.7064C196.218 16.5965 197.411 17.7895 198.301 19.3224L203.49 16.3096ZM197.729 10.5359C195.255 9.05962 192.511 8.336 189.568 8.336V14.336C191.488 14.336 193.16 14.7964 194.654 15.6881L197.729 10.5359ZM189.568 8.336C186.624 8.336 183.88 9.05962 181.406 10.5359L184.481 15.6881C185.975 14.7964 187.647 14.336 189.568 14.336V8.336ZM181.437 10.5176C179.002 11.9315 177.059 13.8745 175.645 16.3096L180.834 19.3224C181.724 17.7895 182.917 16.5965 184.45 15.7064L181.437 10.5176ZM175.656 16.2912C174.208 18.745 173.512 21.4879 173.512 24.44H179.512C179.512 22.4641 179.967 20.791 180.823 19.3408L175.656 16.2912ZM173.512 24.44V48.392H179.512V24.44H173.512ZM173.512 48.392C173.512 51.3201 174.211 54.0531 175.645 56.5224L180.834 53.5096C179.964 52.0109 179.512 50.3279 179.512 48.392H173.512ZM175.656 56.5408C177.068 58.9339 179 60.86 181.406 62.2961L184.481 57.1439C182.919 56.212 181.715 55.0021 180.823 53.4912L175.656 56.5408ZM181.437 62.3144C183.906 63.7481 186.639 64.448 189.568 64.448V58.448C187.632 58.448 185.949 57.9958 184.45 57.1256L181.437 62.3144Z" fill="#464646"/>
</svg>
